REM DIRINDEX 1\2,1\4,1\5,1\6,1\7,1\3\8,1\3\9,1\3\10
REM DIRNAME cjc113,folder01,folder02,folder03,folder04,folder05,folder06,folder07,folder08,folder09
TITLE ""
FILE "DB4500_5th_6C_32.mp3" MP3
  TRACK 01 AUDIO
    TITLE "8:cjc113_4559"
    INDEX 01 00:00:00
  TRACK 02 AUDIO
    TITLE "0:"
    INDEX 01 00:01:17
  TRACK 03 AUDIO
    TITLE "9:cjc113_4560"
    INDEX 01 00:01:21
  TRACK 04 AUDIO
    TITLE "0:"
    INDEX 01 00:02:55
  TRACK 05 AUDIO
    TITLE "10:cjc113_4561"
    INDEX 01 00:02:63
  TRACK 06 AUDIO
    TITLE "0:"
    INDEX 01 00:06:00
  TRACK 07 AUDIO
    TITLE "8:cjc113_4562"
    INDEX 01 00:06:33
  TRACK 08 AUDIO
    TITLE "0:"
    INDEX 01 00:07:45
  TRACK 09 AUDIO
    TITLE "9:cjc113_4563"
    INDEX 01 00:07:54
  TRACK 10 AUDIO
    TITLE "0:"
    INDEX 01 00:08:72
  TRACK 11 AUDIO
    TITLE "10:cjc113_4564"
    INDEX 01 00:09:06
  TRACK 12 AUDIO
    TITLE "0:"
    INDEX 01 00:14:45
  TRACK 13 AUDIO
    TITLE "8:cjc113_4565"
    INDEX 01 00:15:03
  TRACK 14 AUDIO
    TITLE "0:"
    INDEX 01 00:16:00
  TRACK 15 AUDIO
    TITLE "9:cjc113_4566"
    INDEX 01 00:16:06
  TRACK 16 AUDIO
    TITLE "0:"
    INDEX 01 00:17:39
  TRACK 17 AUDIO
    TITLE "10:cjc113_4567"
    INDEX 01 00:17:45
  TRACK 18 AUDIO
    TITLE "0:"
    INDEX 01 00:20:00
  TRACK 19 AUDIO
    TITLE "8:cjc113_4568"
    INDEX 01 00:20:30
  TRACK 20 AUDIO
    TITLE "0:"
    INDEX 01 00:21:37
  TRACK 21 AUDIO
    TITLE "9:cjc113_4569"
    INDEX 01 00:21:45
  TRACK 22 AUDIO
    TITLE "0:"
    INDEX 01 00:22:64
  TRACK 23 AUDIO
    TITLE "10:cjc113_4570"
    INDEX 01 00:22:72
  TRACK 24 AUDIO
    TITLE "0:"
    INDEX 01 00:25:37
  TRACK 25 AUDIO
    TITLE "8:cjc113_4571"
    INDEX 01 00:25:70
  TRACK 26 AUDIO
    TITLE "0:"
    INDEX 01 00:27:00
  TRACK 27 AUDIO
    TITLE "9:cjc113_4572"
    INDEX 01 00:27:06
  TRACK 28 AUDIO
    TITLE "0:"
    INDEX 01 00:28:33
  TRACK 29 AUDIO
    TITLE "10:cjc113_4573"
    INDEX 01 00:28:39
  TRACK 30 AUDIO
    TITLE "0:"
    INDEX 01 00:32:62
  TRACK 31 AUDIO
    TITLE "8:cjc113_4574"
    INDEX 01 00:33:17
  TRACK 32 AUDIO
    TITLE "0:"
    INDEX 01 00:34:26
  TRACK 33 AUDIO
    TITLE "9:cjc113_4575"
    INDEX 01 00:34:36
  TRACK 34 AUDIO
    TITLE "0:"
    INDEX 01 00:35:47
  TRACK 35 AUDIO
    TITLE "10:cjc113_4576"
    INDEX 01 00:35:57
  TRACK 36 AUDIO
    TITLE "0:"
    INDEX 01 00:39:72
  TRACK 37 AUDIO
    TITLE "8:cjc113_4577"
    INDEX 01 00:40:30
  TRACK 38 AUDIO
    TITLE "0:"
    INDEX 01 00:41:42
  TRACK 39 AUDIO
    TITLE "9:cjc113_4578"
    INDEX 01 00:41:51
  TRACK 40 AUDIO
    TITLE "0:"
    INDEX 01 00:43:01
  TRACK 41 AUDIO
    TITLE "10:cjc113_4579"
    INDEX 01 00:43:11
  TRACK 42 AUDIO
    TITLE "0:"
    INDEX 01 00:48:12
  TRACK 43 AUDIO
    TITLE "8:cjc113_4580"
    INDEX 01 00:48:48
  TRACK 44 AUDIO
    TITLE "0:"
    INDEX 01 00:49:70
  TRACK 45 AUDIO
    TITLE "9:cjc113_4581"
    INDEX 01 00:50:03
  TRACK 46 AUDIO
    TITLE "0:"
    INDEX 01 00:51:26
  TRACK 47 AUDIO
    TITLE "10:cjc113_4582"
    INDEX 01 00:51:38
  TRACK 48 AUDIO
    TITLE "0:"
    INDEX 01 00:54:09
  TRACK 49 AUDIO
    TITLE "8:cjc113_4583"
    INDEX 01 00:54:40
  TRACK 50 AUDIO
    TITLE "0:"
    INDEX 01 00:55:73
  TRACK 51 AUDIO
    TITLE "9:cjc113_4584"
    INDEX 01 00:56:06
  TRACK 52 AUDIO
    TITLE "0:"
    INDEX 01 00:57:21
  TRACK 53 AUDIO
    TITLE "10:cjc113_4585"
    INDEX 01 00:57:25
  TRACK 54 AUDIO
    TITLE "0:"
    INDEX 01 01:00:57
  TRACK 55 AUDIO
    TITLE "8:cjc113_4586"
    INDEX 01 01:01:15
  TRACK 56 AUDIO
    TITLE "0:"
    INDEX 01 01:02:26
  TRACK 57 AUDIO
    TITLE "9:cjc113_4587"
    INDEX 01 01:02:34
  TRACK 58 AUDIO
    TITLE "0:"
    INDEX 01 01:03:47
  TRACK 59 AUDIO
    TITLE "10:cjc113_4588"
    INDEX 01 01:03:57
  TRACK 60 AUDIO
    TITLE "0:"
    INDEX 01 01:06:49
  TRACK 61 AUDIO
    TITLE "8:cjc113_4589"
    INDEX 01 01:07:06
  TRACK 62 AUDIO
    TITLE "0:"
    INDEX 01 01:08:27
  TRACK 63 AUDIO
    TITLE "9:cjc113_4590"
    INDEX 01 01:08:36
  TRACK 64 AUDIO
    TITLE "0:"
    INDEX 01 01:09:42
  TRACK 65 AUDIO
    TITLE "10:cjc113_4591"
    INDEX 01 01:09:52
  TRACK 66 AUDIO
    TITLE "0:"
    INDEX 01 01:13:12
  TRACK 67 AUDIO
    TITLE "8:cjc113_4592"
    INDEX 01 01:13:44
  TRACK 68 AUDIO
    TITLE "0:"
    INDEX 01 01:14:49
  TRACK 69 AUDIO
    TITLE "9:cjc113_4593"
    INDEX 01 01:14:59
  TRACK 70 AUDIO
    TITLE "0:"
    INDEX 01 01:16:14
  TRACK 71 AUDIO
    TITLE "10:cjc113_4594"
    INDEX 01 01:16:22
  TRACK 72 AUDIO
    TITLE "0:"
    INDEX 01 01:19:09
  TRACK 73 AUDIO
    TITLE "8:cjc113_4595"
    INDEX 01 01:19:40
  TRACK 74 AUDIO
    TITLE "0:"
    INDEX 01 01:20:51
  TRACK 75 AUDIO
    TITLE "9:cjc113_4596"
    INDEX 01 01:20:59
  TRACK 76 AUDIO
    TITLE "0:"
    INDEX 01 01:21:74
  TRACK 77 AUDIO
    TITLE "10:cjc113_4597"
    INDEX 01 01:22:05
  TRACK 78 AUDIO
    TITLE "0:"
    INDEX 01 01:25:19
